# xmcd CD database file generated by Grip 2.94
# 
# Track frame offsets:
#       150
#       21208
#       40648
#       92258
#       103318
#       126310
#       144410
# 
# Disc length: 2408 seconds
# 
# Revision: 3
# Processed by: cddbd v1.4b41PL1 Copyright (c) Steve Scherf et al.
# Submitted via: Grip 2.94
# 
DISCID=54096607
DTITLE=Stevie Ray Vaughan - Montreal '89
DYEAR=1900
DGENRE=
TTITLE0=Scuttle Buttin'
TTITLE1=I Wanna Testify
TTITLE2=Voodoo Chile
TTITLE3=Honeybee
TTITLE4=Can't Stand The Weather
TTITLE5=Cold Shot
TTITLE6=Texas Flood
EXTD=Tuff Bites
EXTT0=
EXTT1=
EXTT2=
EXTT3=
EXTT4=
EXTT5=
EXTT6=
PLAYORDER=
